/* XPM */
static char *e9defd67feff4ae3b51fe41476d6e784BY84LFWmVPmXUucX[] = {
/* columns rows colors chars-per-pixel */
"42 42 4 1 ",
"  c None",
". c black",
"X c gray73",
"o c white",
/* pixels */
"                                          ",
"                ooooooooo                 ",
"             ooo         ooo              ",
"           oo   .........   oo            ",
"          o   .............   o           ",
"        oo  .................  oo         ",
"       o  .....................  o        ",
"      o  .......................  o       ",
"     o  ..........X..............  o      ",
"     o ..........XoX.............. o      ",
"    o ............X................ o     ",
"   o  .............................  o    ",
"   o .......X....................... o    ",
"  o  ......XoX......................  o   ",
"  o ........X........................ o   ",
"  o ................................. o   ",
" o ................................... o  ",
" o ................................... o  ",
" o ................................... o  ",
" o ................................... o  ",
" o ................................... o  ",
" o ................................... o  ",
" o ................................... o  ",
" o ................................... o  ",
" o ................................... o  ",
"  o ................................. o   ",
"  o ................................. o   ",
"  o  ...............................  o   ",
"   o ............................... o    ",
"   o  .............................  o    ",
"    o ......................X...... o     ",
"     o ....................X...... o      ",
"     o  .........................  o      ",
"      o  .......................  o       ",
"       o  .....................  o        ",
"        oo  .................  oo         ",
"          o   .............   o           ",
"           oo   .........   oo            ",
"             ooo         ooo              ",
"                ooooooooo                 ",
"                                          ",
"                                          "
};
