/* XPM */
static char *_663264e30684ea58c4bc571654070b5mjeXMe09kjiLApdy[] = {
/* columns rows colors chars-per-pixel */
"42 42 14 1 ",
"  c None",
". c black",
"X c #003E51",
"o c #334A4F",
"O c #E4355B",
"+ c #FF5778",
"@ c #EB7589",
"# c #00B6EE",
"$ c #00B7EF",
"% c #9B8BAB",
"& c #A8A9C5",
"* c #99D9EA",
"= c #A8CEE6",
"- c #FFDBE2",
/* pixels */
"                                          ",
"                                          ",
"                                          ",
"                                          ",
"                                          ",
"             ........                     ",
"             .++++OO.                     ",
"             .++++OO...                   ",
"             ...++++OO.                   ",
"               .++++OO...                 ",
"               .OO++++OO.                 ",
"   ......      .OO++++OO.                 ",
"   .OOOO.      .++OO++OO.      ....       ",
"   .OOOO...    .++OO++OO.......*$$*..     ",
"   ...++OO.    .++OO++OO--@..*$$**$$*..   ",
"     .++OO...  .++OO++OO--.%Xo..o*$$**$.  ",
"     .OO++OO.  .@@--@@--@@.=%%==.$**$$$.  ",
"     .OO++OO....@@--@@--@.==%%==XXooX$$$. ",
"     .++OO++--@@--@@--@@-.%%==&&&&&&X$$$. ",
"     .++OO++--@@--@@--@@.=%%==&&&&&&XXX$$.",
"     .++OO--@@--@@--@@--.%==&&&&XX&&&&X$$.",
"     .++OO--@@--@@--@@--.%==&&&&XX&&&&X$$.",
"     .OO++OO--@@--@@--@@.=%%&&&&&&&&&&X$$.",
"     .OO++OO--@@--@@--@@.=%%&&&&&&&&&&X$$.",
"     .++OO....OO@@--@@--.%==%%&&&&&&XXX$$.",
"   ...++OO.  .OO@@--@@--@.==%%&&&&&&X$$$. ",
"   .OOOO...  .++OO@@--@@-.%%==%%XXXXX$$$. ",
"   .OOOO.    .++OO@@--@@--.%==%%X$$$$$$.  ",
"   ......    .OO..OO++OO...XXXXXX$$$$$$.  ",
"             .OO..OO++OO.  ..$$$$$$$$..   ",
"             .....OO++OO.    ..$$$$..     ",
"                 .OO++OO.      ....       ",
"                 .++OO...                 ",
"               ...++OO.                   ",
"               .++OO...                   ",
"               .++OO.                     ",
"               ......                     ",
"                                          ",
"                                          ",
"                                          ",
"                                          ",
"                                          "
};
