/* XPM */
static char *d5a05c2ab8e14df6b4b2608b177e2df48HFEg0oL1zyIddq0[] = {
/* columns rows colors chars-per-pixel */
"42 42 7 1 ",
"  c None",
". c black",
"X c #C51162",
"o c #E91E63",
"O c #4A148C",
"+ c #AA00FF",
"@ c #2196F3",
/* pixels */
"                  ......                  ",
"               ...@@@@@@...               ",
"              .@@@@@@@@@@@@.              ",
"            ..@@@@OOOOOO@@@@..            ",
"           .@@@@OO++++O+OO@@@@.           ",
"          .@@@OO+++++O++++OO@@@.          ",
"          .@@O+++++++O++++O+O@@.          ",
"         .@@O+OO++++++O++O+++O@@.         ",
"        .@@O++++O+++++O++O++++O@@.        ",
"        .@@O+++O++++OO+++OO+++O@@.        ",
"        .@O+O+++O++O++++++O++O+O@.        ",
"       .@@O+O++++O++O++++O++O++O@@.       ",
"       .@@O++O+++++O+++++O+++O+O@@.       ",
"       .@@O+++O+++++++++++O++++O@@.       ",
"       .@@@O+++++++++++++++O++O@@@.       ",
"       .@@@O++++++++++++++++++O@@@.       ",
"       .@@@O++++++++++++++++++O@@@.       ",
"        .@@O++oo++++++++++oo++O@@.        ",
"        .@@@O+oo.++++++++.oo+O@@@.        ",
"        .@@@O++..++++++++..++O@@@.        ",
"         .@@@O++++++++++++++O@@@.         ",
"          .@@OO++++++++++++OO@@.          ",
"          .@O++O+.+.++.+.+O++O@.          ",
"           .+++O++.+..+.++O+++.           ",
"           O..O+OO++++++OO+O..O           ",
"          O+++.+++OOOOOO+++.+++O          ",
"          O++O+...@@@@@@...+O++O          ",
"         O+++O++O ...... O++O+++O         ",
"         OX+O O++O      O++O O++O         ",
"         OX+O OX+O      O+XO O++O         ",
"         O++O OX+O      O+XO O+XO         ",
"          OXO OX+O      O+XO O+O          ",
"          OXO  OXO      O+O  OXO          ",
"          OX+O O+O      O+O O+XO          ",
"          OX+O O+O      OXO O+XO          ",
"           OXO OX+O    O+XO OXO           ",
"           OXO  O+O    O+O  OXO           ",
"            O   OXO    O+O   O            ",
"            O   OXO    OXO   O            ",
"                 O      O                 ",
"                 O      O                 ",
"                                          "
};
