/* XPM */
static char *_52ec1cf438b4e70b016ecd404c634f2Z681SlMfUkAA1Ojp[] = {
/* columns rows colors chars-per-pixel */
"42 42 81 1 ",
"  c black",
". c #050000",
"X c #000700",
"o c #070700",
"O c #000004",
"+ c #040004",
"@ c #090000",
"# c #0C0000",
"$ c #0E0006",
"% c #000900",
"& c #090900",
"* c #0F0F00",
"= c #090904",
"- c #0F0F05",
"; c #040409",
": c #01010C",
"> c #120000",
", c #170000",
"< c #190000",
"1 c #001D00",
"2 c #121200",
"3 c #171700",
"4 c #191900",
"5 c #1C1C05",
"6 c #17170D",
"7 c #18180B",
"8 c #19190D",
"9 c #000012",
"0 c #050513",
"q c #000117",
"w c #000018",
"e c #070018",
"r c #0D0D1B",
"t c #09091D",
"y c #09131D",
"u c #1F1F1B",
"i c #1E1E1D",
"p c #200000",
"a c #2F0B16",
"s c #222F1A",
"d c #3D3D17",
"f c #000025",
"g c #12062A",
"h c #1A1A26",
"j c #1F1F25",
"k c #161629",
"l c #050535",
"z c #0E0E35",
"x c #09093F",
"c c #021731",
"v c #1B1839",
"b c #200F2F",
"n c #222222",
"m c #24242A",
"M c #2A2A2E",
"N c #25253A",
"B c #3E3035",
"V c #030341",
"C c #21214A",
"Z c #25254B",
"A c #28244B",
"S c #2B2B4B",
"D c #2D2D4D",
"F c #363647",
"G c #3B3B49",
"H c #363652",
"J c #3D3D58",
"K c #3C3662",
"L c #392C76",
"P c #4C354A",
"I c #5E5E46",
"U c #53534D",
"Y c #545453",
"T c #5E5E55",
"R c #585859",
"E c #676154",
"W c #53536A",
"Q c #69696E",
"! c #5A5A81",
"~ c #A17B91",
"^ c #DCDCF9",
/* pixels */
"             3                            ",
"                                  b       ",
"  j  o                  &r         2      ",
"               l   q                      ",
"            &               4             ",
"          F       %9    m 9   5 &         ",
"          o    &  k           n           ",
"              :          Y=               ",
"!     J         + A               d       ",
"        h        # X    o       L       o ",
"       2    6                   fo      o ",
"                  D                *      ",
"                                          ",
"                                      o   ",
" g                              j      #. ",
"                                       ,  ",
"                  Zw              <       ",
"    8C  >        U          H            o",
"           *  K       *            W    o ",
"   o%     o      o             o      .   ",
"                 21     2              O  ",
"                   P     V                ",
"            RX                            ",
"   8    #  uo      z  0       2           ",
"           S          M                   ",
"                  4                       ",
"                                      s   ",
"    v          t             @        q   ",
"                I                 *       ",
"                                    *     ",
"  ~              N o    6   o   po      X ",
"          q      &         o              ",
"                            G             ",
"       T                                 x",
"                                          ",
"    *         m                           ",
"                  3 -            $        ",
" B             c                   o      ",
"3       U   O 4^   Q        :      3   e  ",
"               y                o        7",
"   o             i             o    ; .@  ",
"   2                a          2      >E  "
};
