/* XPM */
static char *bc956ae6ef8d4d37e85246c20a3931d6iELNc61YpV0ZCKZg[] = {
/* columns rows colors chars-per-pixel */
"42 42 4 1 ",
"  c None",
". c black",
"X c gray73",
"o c white",
/* pixels */
"                ooooooooo                 ",
"             ooo         ooo              ",
"           oo   .........   oo            ",
"         oo  ...............  oo          ",
"        o  ...................  o         ",
"       o  .....................  o        ",
"      o  .......................  o       ",
"     o  .........................  o      ",
"    o  ...........X...............  o     ",
"   o  ...........XoX...............  o    ",
"   o .............X................. o    ",
"  o ................................. o   ",
"  o ........X........................ o   ",
" o ........XoX........................ o  ",
" o .........X......................... o  ",
" o ................................... o  ",
"o ..................................... o ",
"o ..................................... o ",
"o ..................................... o ",
"o ..................................... o ",
"o ..................................... o ",
"o ..................................... o ",
"o ..................................... o ",
"o ..................................... o ",
"o ..................................... o ",
" o ................................... o  ",
" o ................................... o  ",
" o ................................... o  ",
"  o ................................. o   ",
"  o ................................. o   ",
"   o ............................... o    ",
"   o  ......................X......  o    ",
"    o  ....................X......  o     ",
"     o  .........................  o      ",
"      o  .......................  o       ",
"       o  .....................  o        ",
"        o  ...................  o         ",
"         oo  ...............  oo          ",
"           oo   .........   oo            ",
"             ooo         ooo              ",
"                ooooooooo                 ",
"                                          "
};
