/* XPM */
static char *_335073b85a7420fc8bac32623078941w69ywQyJPYLEsJpv[] = {
/* columns rows colors chars-per-pixel */
"42 42 7 1 ",
"  c None",
". c black",
"X c #C51162",
"o c #E91E63",
"O c #4A148C",
"+ c #AA00FF",
"@ c #2196F3",
/* pixels */
"                  ......                  ",
"               ...@@@@@@...               ",
"              .@@@@@@@@@@@@.              ",
"            ..@@@@@@@@@@@@@@..            ",
"           .@@@@@@OOOOOO@@@@@@.           ",
"          .@@@@@OO++++O+OO@@@@@.          ",
"          .@@@OO+++++O++++OO@@@.          ",
"         .@@@O+++++++O++++O+O@@@.         ",
"        .@@@O+OO++++++O++O+++O@@@.        ",
"        .@@O++++O+++++O++O++++O@@.        ",
"        .@@O+++O+++++O+++OO+++O@@.        ",
"       .@@O+O+++O+++O+++++O++O+O@@.       ",
"       .@@O+O+++O++++O++++O++O+O@@.       ",
"       .@@O++O+++O++O++++O++O++O@@.       ",
"       .@@O++O++++++++++++O++++O@@.       ",
"       .@@@O++O++++++++++O++++O@@@.       ",
"       .@@@O++++++++++++++++++O@@@.       ",
"        .@@O++++++++++++++++++O@@.        ",
"        .@@O++oo++++++++++oo++O@@.        ",
"        .@@@O+oo.++++++++.oo+O@@@.        ",
"         .@@O++..++++++++..++O@@.         ",
"          .@@O++++++++++++++O@@.          ",
"          .@@OO++++++++++++OO@@.          ",
"           .O++O++.+..+.++O++O.           ",
"            ..+O+.+.++.+.+O+..            ",
"           O++.@OO++++++OO@.++O           ",
"           O++O...OOOOOO...O++O           ",
"          O+++O O+......+O O+++O          ",
"          OX+O O+++O  O+++O O++O          ",
"          OXXO O++O    O++O O++O          ",
"          O+O  O++O    O+XO  O+O          ",
"         O++O  O++O    O+XO  O++O         ",
"         O++O  OX+O    O+XO  O++O         ",
"         OXO    OXO    O+O    OXO         ",
"         OXO    OXO    O+O    OXO         ",
"         OX+O   OXO    O+O   OXXO         ",
"          OXO   OX+O  O+XO   O+O          ",
"          OXO    OXO  O+O    OXO          ",
"           O     OXO  O+O     O           ",
"           O     OXO  OXO     O           ",
"                  O    O                  ",
"                  O    O                  "
};
