/* XPM */
static char *_e38ee52c73b41ea8b3534481449b0bdkdQufHh9rSoM8nKT[] = {
/* columns rows colors chars-per-pixel */
"42 42 14 1 ",
"  c None",
". c black",
"X c #003E51",
"o c #334A4F",
"O c #E6375A",
"+ c #FF5778",
"@ c #EB7589",
"# c #00B6EE",
"$ c #00B7EF",
"% c #9B8BAB",
"& c #A8A9C5",
"* c #99D9EA",
"= c #A8CEE6",
"- c #FFDBE2",
/* pixels */
"                                          ",
"                                          ",
"                                          ",
"                                          ",
"                                          ",
"                   ......                 ",
"                   .++OO.                 ",
"                 ...++OO.                 ",
"                 .OO++OO.                 ",
"               ...OO++OO...               ",
"               .OO++OO++OO.               ",
" ........      .OO++OO++OO.               ",
" .OOOOOO.      .OO++OO++OO.    ....       ",
" .OOOOOO...    .OO++OO++OO.....*$$*..     ",
" ...++++OO.    .OO++OO++--@..*$$**$$*..   ",
"   .++++OO...  .OO++OO++--.%Xo..o*$$**$.  ",
"   .OOOOOOOO.  .@@--@@--@@.=%%==.$**$$$.  ",
"   .OOOOOOOO....@@--@@--@.==%%==XXooX$$$. ",
"   ...++++++--@@--@@--@@-.%%==&&&&&&X$$$. ",
"     .++++++--@@--@@--@@.=%%==&&&&&&XXX$$.",
"     .OOOO--@@--@@--@@--.%==&&&&XX&&&&X$$.",
"     .OOOO--@@--@@--@@--.%==&&&&XX&&&&X$$.",
"     .++++++--@@--@@--@@.=%%&&&&&&&&&&X$$.",
"   ...++++++--@@--@@--@@.=%%&&&&&&&&&&X$$.",
"   .OOOOOO....OO@@--@@--.%==%%&&&&&&XXX$$.",
" ...OOOOOO.  .OO@@--@@--@.==%%&&&&&&X$$$. ",
" .++++++...  .++OO@@--@@-.%%==%%XXXXX$$$. ",
" .++++++.    .++OO@@--@@--.%==%%X$$$$$$.  ",
" ........    .OO....OO++OO.XXXXXX$$$$$$.  ",
"             .OO.  .OO++OO...$$$$$$$$..   ",
"             ....  .OO++OO.  ..$$$$..     ",
"                   .OO++OO.    ....       ",
"                   .++OO...               ",
"                   .++OO.                 ",
"                   .OO...                 ",
"                   .OO.                   ",
"                   ....                   ",
"                                          ",
"                                          ",
"                                          ",
"                                          ",
"                                          "
};
