/* XPM */
static char *_c5c1780fab441bdbffa854d4592ef97E1uv8XxWFvrTO2OQ[] = {
/* columns rows colors chars-per-pixel */
"42 42 87 1 ",
"  c black",
". c #070000",
"X c #000500",
"o c #070700",
"O c #000006",
"+ c #040004",
"@ c #050506",
"# c #080000",
"$ c #0E0000",
"% c #0E0006",
"& c #090900",
"* c #0F0F01",
"= c #090905",
"- c #000009",
"; c #040409",
": c #01010C",
"> c #120000",
", c #170000",
"< c #190003",
"1 c #1F0000",
"2 c #001D00",
"3 c #121200",
"4 c #171700",
"5 c #191900",
"6 c #1E1E03",
"7 c #12120F",
"8 c #17170D",
"9 c #18180B",
"0 c #19190D",
"q c #030012",
"w c #050513",
"e c #000117",
"r c #070717",
"t c #090915",
"y c #000018",
"u c #05051D",
"i c #09091D",
"p c #12051D",
"a c #00171A",
"s c #09131D",
"d c #13131B",
"f c #2F0B16",
"g c #1D2F0D",
"h c #21211B",
"j c #3D3D17",
"k c #000027",
"l c #00002F",
"z c #1D062A",
"x c #1A1A26",
"c c #1F1F25",
"v c #141429",
"b c #0E0E35",
"n c #09093F",
"m c #171731",
"M c #200F2F",
"N c #2D1839",
"B c #24242A",
"V c #29292A",
"C c #2A2A2E",
"Z c #25253A",
"A c #3D3D37",
"S c #030341",
"D c #0C0C4B",
"F c #1E1E42",
"G c #21214A",
"H c #25254B",
"J c #2D2D4D",
"K c #36354A",
"L c #393949",
"P c #363652",
"I c #3D3D55",
"U c #3C3662",
"Y c #393676",
"T c #47284B",
"R c #404046",
"E c #44444D",
"W c #53534F",
"Q c #5A5A53",
"! c #585859",
"~ c #676154",
"^ c #53466A",
"/ c #69696E",
"( c #797977",
") c #3F3F81",
"_ c #A07B91",
"` c #82829A",
"' c #DCDCF9",
/* pixels */
"             4                            ",
"                                  M       ",
"  6  o              o   &h         3      ",
"               @   e                      ",
"            &               5   5         ",
"          V        q    B q   O           ",
"          r    &  v:         &(  :        ",
"              :          QO               ",
")     I         + T               j       ",
"        x          o    o  o    Y       o ",
"       3    8                   ko      o ",
"                  J                *      ",
"                                          ",
"       .                  q               ",
" z                              c      $. ",
"     O            q                   -,  ",
"                  Hy    k        y<       ",
"    0G  >        E          P         O  o",
"     :     *  U       &            ^    o ",
"   o             o                    .   ",
"                  2     3              O  ",
"                   K     S                ",
"            !X     -                      ",
"   7    $  do    & b  w       *           ",
"           D        a C                   ",
"   *                F-                  & ",
"          u   o    q                  g&  ",
"    N          i                      e   ",
"                R                 *       ",
"                                    *     ",
"  _$      * o    Z o    8   o   1         ",
"          e      t         o              ",
"                            L             ",
"      n`                                 &",
"                                     <    ",
"              B                         . ",
"                  4 =            %      # ",
" A             m                   o      ",
"4       W   O 5'   /        :      4   y  ",
"               s                         9",
"           &     p q l              ; .#  ",
"   3                f          3      >~  "
};
